<svg width="22" height="16" viewBox="0 0 22 16" fill="none" xmlns="http://www.w3.org/2000/svg">
<path d="M13 5.57047V3.96542C13.55 3.74512 14.1125 3.57989 14.6875 3.46974C15.2625 3.35959 15.8667 3.30452 16.5 3.30452C16.9333 3.30452 17.3583 3.33599 17.775 3.39893C18.1917 3.46188 18.6 3.54056 19 3.63497V5.14561C18.6 5.00398 18.1958 4.89777 17.7875 4.82696C17.3792 4.75615 16.95 4.72074 16.5 4.72074C15.8667 4.72074 15.2583 4.79549 14.675 4.94498C14.0917 5.09447 13.5333 5.30297 13 5.57047ZM13 10.7633V9.15824C13.55 8.93793 14.1125 8.77271 14.6875 8.66256C15.2625 8.55241 15.8667 8.49733 16.5 8.49733C16.9333 8.49733 17.3583 8.5288 17.775 8.59175C18.1917 8.65469 18.6 8.73337 19 8.82778V10.3384C18.6 10.1968 18.1958 10.0906 17.7875 10.0198C17.3792 9.94896 16.95 9.91356 16.5 9.91356C15.8667 9.91356 15.2583 9.98437 14.675 10.126C14.0917 10.2676 13.5333 10.48 13 10.7633ZM13 8.16688V6.56183C13.55 6.34153 14.1125 6.1763 14.6875 6.06615C15.2625 5.956 15.8667 5.90093 16.5 5.90093C16.9333 5.90093 17.3583 5.9324 17.775 5.99534C18.1917 6.05828 18.6 6.13696 19 6.23138V7.74201C18.6 7.60039 18.1958 7.49418 17.7875 7.42336C17.3792 7.35255 16.95 7.31715 16.5 7.31715C15.8667 7.31715 15.2583 7.39189 14.675 7.54138C14.0917 7.69087 13.5333 7.89937 13 8.16688ZM12 12.3211C12.7333 11.9907 13.4708 11.7428 14.2125 11.5776C14.9542 11.4124 15.7167 11.3298 16.5 11.3298C17.1 11.3298 17.6875 11.377 18.2625 11.4714C18.8375 11.5658 19.4167 11.7074 20 11.8963V2.5492C19.45 2.3289 18.8792 2.16367 18.2875 2.05352C17.6958 1.94337 17.1 1.8883 16.5 1.8883C15.7167 1.8883 14.9417 1.98271 14.175 2.17154C13.4083 2.36037 12.6833 2.64361 12 3.02127V12.3211ZM11 15.1064C10.2 14.5084 9.33333 14.0442 8.4 13.7138C7.46667 13.3833 6.5 13.2181 5.5 13.2181C4.8 13.2181 4.1125 13.3046 3.4375 13.4777C2.7625 13.6508 2.11667 13.8947 1.5 14.2094C1.15 14.3825 0.8125 14.3747 0.4875 14.1858C0.1625 13.997 0 13.7216 0 13.3597V1.98271C0 1.80962 0.0458333 1.64439 0.1375 1.48703C0.229167 1.32968 0.366667 1.21166 0.55 1.13298C1.33333 0.771054 2.1375 0.491744 2.9625 0.295046C3.7875 0.0983488 4.63333 0 5.5 0C6.46667 0 7.4125 0.118019 8.3375 0.354056C9.2625 0.590093 10.15 0.944148 11 1.41622C11.85 0.944148 12.7375 0.590093 13.6625 0.354056C14.5875 0.118019 15.5333 0 16.5 0C17.3667 0 18.2125 0.0983488 19.0375 0.295046C19.8625 0.491744 20.6667 0.771054 21.45 1.13298C21.6333 1.21166 21.7708 1.32968 21.8625 1.48703C21.9542 1.64439 22 1.80962 22 1.98271V13.3597C22 13.7216 21.8375 13.997 21.5125 14.1858C21.1875 14.3747 20.85 14.3825 20.5 14.2094C19.8833 13.8947 19.2375 13.6508 18.5625 13.4777C17.8875 13.3046 17.2 13.2181 16.5 13.2181C15.5 13.2181 14.5333 13.3833 13.6 13.7138C12.6667 14.0442 11.8 14.5084 11 15.1064Z" fill="url(#paint0_linear_19_97)"/>
<defs>
<linearGradient id="paint0_linear_19_97" x1="11" y1="0" x2="11" y2="15.1064" gradientUnits="userSpaceOnUse">
<stop stop-color="#046B65"/>
<stop offset="1" stop-color="#66E9E1"/>
</linearGradient>
</defs>
</svg>
