<svg width="23" height="19" viewBox="0 0 23 19" fill="none" xmlns="http://www.w3.org/2000/svg">
<path d="M10.9 18.883L15.45 7.55318H17.55L22.1 18.883H20L18.95 16.0033H14.1L13 18.883H10.9ZM14.7 14.351H18.3L16.55 9.67752H16.45L14.7 14.351ZM3 16.0505L1.6 14.7287L6.65 9.96076C6.01667 9.29986 5.4625 8.61535 4.9875 7.90724C4.5125 7.19913 4.1 6.45168 3.75 5.66489H5.85C6.15 6.23138 6.47083 6.74279 6.8125 7.19913C7.15417 7.65547 7.56667 8.13541 8.05 8.63895C8.78333 7.88364 9.39167 7.10865 9.875 6.31399C10.3583 5.51933 10.7667 4.67353 11.1 3.77659H0V1.8883H7V0H9V1.8883H16V3.77659H13.1C12.75 4.89383 12.275 5.9796 11.675 7.0339C11.075 8.0882 10.3333 9.07956 9.45 10.008L11.85 12.3211L11.1 14.2566L8 11.3298L3 16.0505Z" fill="url(#paint0_linear_19_90)"/>
<defs>
<linearGradient id="paint0_linear_19_90" x1="11.05" y1="0" x2="11.05" y2="18.883" gradientUnits="userSpaceOnUse">
<stop stop-color="#046B65"/>
<stop offset="1" stop-color="#66E9E1"/>
</linearGradient>
</defs>
</svg>
