<svg width="288" height="38" viewBox="0 0 288 38" fill="none" xmlns="http://www.w3.org/2000/svg">
<path d="M29.8481 3.736L19.1921 24.52V37H11.3201V24.568L0.664062 3.736H9.25606L15.4001 18.376L21.5441 3.736H29.8481Z" fill="#141414"/>
<path d="M48.6071 29.608C48.6071 30.568 48.7351 31.272 48.9911 31.72C49.2791 32.168 49.7271 32.504 50.3351 32.728L48.7511 37.672C47.1831 37.544 45.9031 37.208 44.9111 36.664C43.9191 36.088 43.1511 35.192 42.6071 33.976C40.9431 36.536 38.3831 37.816 34.9271 37.816C32.3991 37.816 30.3831 37.08 28.8791 35.608C27.3751 34.136 26.6231 32.216 26.6231 29.848C26.6231 27.064 27.6471 24.936 29.6951 23.464C31.7431 21.992 34.7031 21.256 38.5751 21.256H41.1671V20.152C41.1671 18.648 40.8471 17.624 40.2071 17.08C39.5671 16.504 38.4471 16.216 36.8471 16.216C36.0151 16.216 35.0071 16.344 33.8231 16.6C32.6391 16.824 31.4231 17.144 30.1751 17.56L28.4471 12.568C30.0471 11.96 31.6791 11.496 33.3431 11.176C35.0391 10.856 36.6071 10.696 38.0471 10.696C41.6951 10.696 44.3671 11.448 46.0631 12.952C47.7591 14.456 48.6071 16.712 48.6071 19.72V29.608ZM37.1351 32.392C38.8631 32.392 40.2071 31.576 41.1671 29.944V25.432H39.2951C37.5671 25.432 36.2711 25.736 35.4071 26.344C34.5751 26.952 34.1591 27.896 34.1591 29.176C34.1591 30.2 34.4151 31 34.9271 31.576C35.4711 32.12 36.2071 32.392 37.1351 32.392Z" fill="#141414"/>
<path d="M69.5759 10.696C71.7839 10.696 73.5119 11.368 74.7599 12.712C76.0079 14.056 76.6319 15.944 76.6319 18.376V37H69.0479V19.672C69.0479 18.392 68.8399 17.512 68.4239 17.032C68.0399 16.52 67.4479 16.264 66.6479 16.264C65.1119 16.264 63.6399 17.368 62.2319 19.576V37H54.6479V11.512H61.2719L61.7999 14.536C62.8879 13.256 64.0559 12.296 65.3039 11.656C66.5839 11.016 68.0079 10.696 69.5759 10.696Z" fill="#141414"/>
<path d="M97.2791 10.696C99.4871 10.696 101.215 11.368 102.463 12.712C103.711 14.056 104.335 15.944 104.335 18.376V37H96.7511V19.672C96.7511 18.392 96.5431 17.512 96.1271 17.032C95.7431 16.52 95.1511 16.264 94.3511 16.264C92.8151 16.264 91.3431 17.368 89.9351 19.576V37H82.3511V11.512H88.9751L89.5031 14.536C90.5911 13.256 91.7591 12.296 93.0071 11.656C94.2871 11.016 95.7111 10.696 97.2791 10.696Z" fill="#141414"/>
<path d="M154.613 37H146.885L146.309 23.992C146.149 20.888 146.069 18.12 146.069 15.688C146.069 13.832 146.117 12.072 146.213 10.408L141.077 33.496H133.637L128.165 10.408C128.357 13.192 128.453 15.816 128.453 18.28C128.453 20.136 128.405 22.072 128.309 24.088L127.733 37H120.053L122.549 3.736H132.485L137.477 26.296L142.133 3.736H152.117L154.613 37Z" fill="#141414"/>
<path d="M181.403 23.752C181.403 24.808 181.355 25.72 181.259 26.488H165.467C165.723 28.632 166.331 30.136 167.291 31C168.251 31.864 169.579 32.296 171.275 32.296C172.299 32.296 173.291 32.12 174.251 31.768C175.211 31.384 176.251 30.808 177.371 30.04L180.491 34.264C177.515 36.632 174.203 37.816 170.555 37.816C166.427 37.816 163.259 36.6 161.051 34.168C158.843 31.736 157.739 28.472 157.739 24.376C157.739 21.784 158.203 19.464 159.131 17.416C160.059 15.336 161.419 13.704 163.211 12.52C165.003 11.304 167.147 10.696 169.643 10.696C173.323 10.696 176.203 11.848 178.283 14.152C180.363 16.456 181.403 19.656 181.403 23.752ZM173.963 21.592C173.899 17.688 172.523 15.736 169.835 15.736C168.523 15.736 167.499 16.216 166.763 17.176C166.059 18.136 165.627 19.72 165.467 21.928H173.963V21.592Z" fill="#141414"/>
<path d="M200.592 10.696C202.8 10.696 204.528 11.368 205.776 12.712C207.024 14.056 207.648 15.944 207.648 18.376V37H200.064V19.672C200.064 18.392 199.856 17.512 199.44 17.032C199.056 16.52 198.464 16.264 197.664 16.264C196.128 16.264 194.656 17.368 193.248 19.576V37H185.664V11.512H192.288L192.816 14.536C193.904 13.256 195.072 12.296 196.32 11.656C197.6 11.016 199.024 10.696 200.592 10.696Z" fill="#141414"/>
<path d="M236.215 1.38399V37H229.495L229.111 34.024C227.319 36.552 224.903 37.816 221.863 37.816C218.695 37.816 216.279 36.6 214.615 34.168C212.983 31.736 212.167 28.408 212.167 24.184C212.167 21.592 212.599 19.272 213.463 17.224C214.327 15.176 215.543 13.576 217.111 12.424C218.711 11.272 220.535 10.696 222.583 10.696C225.015 10.696 227.031 11.496 228.631 13.096V0.567993L236.215 1.38399ZM224.215 32.248C225.975 32.248 227.447 31.288 228.631 29.368V18.376C228.023 17.64 227.399 17.096 226.759 16.744C226.151 16.392 225.447 16.216 224.647 16.216C223.239 16.216 222.119 16.872 221.287 18.184C220.455 19.496 220.039 21.512 220.039 24.232C220.039 27.208 220.391 29.288 221.095 30.472C221.831 31.656 222.871 32.248 224.215 32.248Z" fill="#141414"/>
<path d="M264.372 23.752C264.372 24.808 264.324 25.72 264.228 26.488H248.436C248.692 28.632 249.3 30.136 250.26 31C251.22 31.864 252.548 32.296 254.244 32.296C255.268 32.296 256.26 32.12 257.22 31.768C258.18 31.384 259.22 30.808 260.34 30.04L263.46 34.264C260.484 36.632 257.172 37.816 253.524 37.816C249.396 37.816 246.228 36.6 244.02 34.168C241.812 31.736 240.708 28.472 240.708 24.376C240.708 21.784 241.172 19.464 242.1 17.416C243.028 15.336 244.388 13.704 246.18 12.52C247.972 11.304 250.116 10.696 252.612 10.696C256.292 10.696 259.172 11.848 261.252 14.152C263.332 16.456 264.372 19.656 264.372 23.752ZM256.932 21.592C256.868 17.688 255.492 15.736 252.804 15.736C251.492 15.736 250.468 16.216 249.732 17.176C249.028 18.136 248.596 19.72 248.436 21.928H256.932V21.592Z" fill="#141414"/>
<path d="M277.608 10.696C279.432 10.696 281.144 10.968 282.744 11.512C284.344 12.056 285.752 12.824 286.968 13.816L284.184 18.088C282.104 16.776 280.008 16.12 277.896 16.12C276.904 16.12 276.136 16.296 275.592 16.648C275.08 16.968 274.824 17.432 274.824 18.04C274.824 18.52 274.936 18.92 275.16 19.24C275.416 19.528 275.912 19.832 276.648 20.152C277.384 20.472 278.52 20.856 280.056 21.304C282.712 22.072 284.68 23.08 285.96 24.328C287.272 25.544 287.928 27.24 287.928 29.416C287.928 31.144 287.432 32.648 286.44 33.928C285.448 35.176 284.088 36.136 282.36 36.808C280.632 37.48 278.712 37.816 276.6 37.816C274.456 37.816 272.456 37.48 270.6 36.808C268.776 36.136 267.224 35.208 265.944 34.024L269.64 29.896C271.784 31.56 274.04 32.392 276.408 32.392C277.56 32.392 278.456 32.184 279.096 31.768C279.768 31.352 280.104 30.76 280.104 29.992C280.104 29.384 279.976 28.904 279.72 28.552C279.464 28.2 278.968 27.88 278.232 27.592C277.496 27.272 276.328 26.888 274.728 26.44C272.2 25.704 270.312 24.68 269.064 23.368C267.816 22.056 267.192 20.424 267.192 18.472C267.192 17 267.608 15.688 268.44 14.536C269.304 13.352 270.52 12.424 272.088 11.752C273.688 11.048 275.528 10.696 277.608 10.696Z" fill="#141414"/>
</svg>
